<?xml version="1.0" encoding="UTF-8"?>
<!DOCTYPE svg PUBLIC "-//W3C//DTD SVG 1.1//EN" "http://www.w3.org/Graphics/SVG/1.1/DTD/svg11.dtd">
<svg xmlns="http://www.w3.org/2000/svg" version="1.1" width="512px" height="512px" style="shape-rendering:geometricPrecision; text-rendering:geometricPrecision; image-rendering:optimizeQuality; fill-rule:evenodd; clip-rule:evenodd" xmlns:xlink="http://www.w3.org/1999/xlink">
<g><path style="opacity:0.973" fill="#dceaed" d="M 131.5,21.5 C 217.857,21.0213 304.191,21.5213 390.5,23C 407.02,25.8369 422.02,32.1702 435.5,42C 449.034,53.8667 461.534,66.7001 473,80.5C 482.025,94.5734 487.692,109.907 490,126.5C 490.667,212.5 490.667,298.5 490,384.5C 487.249,404.66 479.583,422.66 467,438.5C 454.694,452.147 441.194,464.314 426.5,475C 412.82,482.754 398.153,487.42 382.5,489C 296.143,489.979 209.81,489.645 123.5,488C 107.528,485.122 92.8613,479.122 79.5,470C 62.8774,457.047 48.7107,441.88 37,424.5C 28.6884,409.565 24.0217,393.565 23,376.5C 22.3333,295.833 22.3333,215.167 23,134.5C 24.3976,109.289 33.3976,87.2886 50,68.5C 64.3185,51.5018 81.4852,38.3351 101.5,29C 111.399,25.5251 121.399,23.0251 131.5,21.5 Z M 136.5,76.5 C 216.834,76.3333 297.167,76.5 377.5,77C 394.785,78.0883 409.618,84.5883 422,96.5C 429.099,107.129 433.432,118.795 435,131.5C 435.667,213.167 435.667,294.833 435,376.5C 426.14,351.092 412.473,328.759 394,309.5C 383.479,299.644 372.979,289.811 362.5,280C 381.919,240.381 379.419,202.214 355,165.5C 342.057,150.22 327.557,136.72 311.5,125C 276.501,106.42 241.168,105.753 205.5,123C 177.464,140.029 156.964,163.529 144,193.5C 134.596,223.424 137.096,252.257 151.5,280C 127.703,298.787 107.87,320.954 92,346.5C 86.8906,355.832 82.5572,365.499 79,375.5C 78.3333,293.167 78.3333,210.833 79,128.5C 81.045,115.249 86.2117,103.416 94.5,93C 107.004,83.4478 121.004,77.9478 136.5,76.5 Z M 247.5,165.5 C 267.311,163.785 285.311,168.619 301.5,180C 318.296,199.625 323.796,222.125 318,247.5C 315.135,260.658 308.635,271.492 298.5,280C 269.389,297.205 240.722,296.539 212.5,278C 196.152,259.45 190.319,237.95 195,213.5C 197.494,201.33 202.661,190.497 210.5,181C 221.745,173.039 234.078,167.872 247.5,165.5 Z M 183.5,320.5 C 184.552,320.351 185.552,320.517 186.5,321C 223.802,350.85 264.136,355.517 307.5,335C 314.516,330.826 321.183,326.159 327.5,321C 328.5,320.333 329.5,320.333 330.5,321C 338.444,325.889 345.944,331.389 353,337.5C 376.288,364.767 388.455,396.433 389.5,432.5C 385.51,432.999 381.51,433.499 377.5,434C 297.167,434.667 216.833,434.667 136.5,434C 132.49,433.499 128.49,432.999 124.5,432.5C 125.372,397.446 136.872,366.446 159,339.5C 166.781,332.538 174.947,326.205 183.5,320.5 Z"/></g>
</svg>
