<?xml version="1.0" encoding="UTF-8"?>
<!DOCTYPE svg PUBLIC "-//W3C//DTD SVG 1.1//EN" "http://www.w3.org/Graphics/SVG/1.1/DTD/svg11.dtd">
<svg xmlns="http://www.w3.org/2000/svg" version="1.1" width="512px" height="512px" style="shape-rendering:geometricPrecision; text-rendering:geometricPrecision; image-rendering:optimizeQuality; fill-rule:evenodd; clip-rule:evenodd" xmlns:xlink="http://www.w3.org/1999/xlink">
<g><path style="opacity:0.998" fill="#414459" d="M 50.5,-0.5 C 187.167,-0.5 323.833,-0.5 460.5,-0.5C 482.5,11.5 499.5,28.5 511.5,50.5C 511.5,195.5 511.5,340.5 511.5,485.5C 504.5,495.833 495.833,504.5 485.5,511.5C 375.167,511.5 264.833,511.5 154.5,511.5C 152.539,509.037 150.372,506.703 148,504.5C 143.965,498.338 143.631,492.005 147,485.5C 151.167,481.333 155.333,477.167 159.5,473C 161.087,472.138 162.754,471.471 164.5,471C 186.831,470.5 209.164,470.333 231.5,470.5C 231.5,463.5 231.5,456.5 231.5,449.5C 176.801,449.975 122.134,449.475 67.5,448C 46.4258,442.923 28.9258,432.09 15,415.5C 9.18702,408.202 4.02035,400.535 -0.5,392.5C -0.5,278.5 -0.5,164.5 -0.5,50.5C 11.5,28.5 28.5,11.5 50.5,-0.5 Z M 76.5,40.5 C 195.834,40.3333 315.167,40.5 434.5,41C 455,44.1667 466.833,56 470,76.5C 470.5,117.165 470.667,157.832 470.5,198.5C 448.683,197.867 426.849,197.534 405,197.5C 382.803,197.373 360.636,197.873 338.5,199C 331.339,200.914 324.672,203.914 318.5,208C 310.216,215.278 303.049,223.444 297,232.5C 294.558,237.933 292.892,243.6 292,249.5C 291.5,300.499 291.333,351.499 291.5,402.5C 218.469,402.981 145.469,402.481 72.5,401C 54.1181,396.759 43.6181,385.259 41,366.5C 40.5005,360.175 40.3338,353.842 40.5,347.5C 114.167,347.667 187.834,347.5 261.5,347C 267.849,343.662 273.349,339.162 278,333.5C 281.526,326.297 281.193,319.297 277,312.5C 273.466,308.631 269.633,305.131 265.5,302C 262.635,301.163 259.802,300.33 257,299.5C 184.904,300.498 112.738,300.831 40.5,300.5C 40.3333,225.833 40.5,151.166 41,76.5C 44.3457,55.9883 56.1791,43.9883 76.5,40.5 Z M 343.5,245.5 C 384.168,245.333 424.835,245.5 465.5,246C 466.766,246.309 467.933,246.809 469,247.5C 470.657,320.11 470.99,392.776 470,465.5C 469.535,466.931 468.701,468.097 467.5,469C 446.753,470.156 425.92,470.656 405,470.5C 384.833,470.333 364.667,470.167 344.5,470C 340.576,468.68 338.743,465.846 339,461.5C 338.333,392.5 338.333,323.5 339,254.5C 338.956,250.586 340.456,247.586 343.5,245.5 Z M 279.5,449.5 C 283.5,449.5 287.5,449.5 291.5,449.5C 291.326,456.535 291.659,463.535 292.5,470.5C 288.167,470.5 283.833,470.5 279.5,470.5C 279.5,463.5 279.5,456.5 279.5,449.5 Z"/></g>
<g><path style="opacity:0.995" fill="#414459" d="M 401.5,419.5 C 405.702,419.384 409.702,420.217 413.5,422C 431.545,437.279 430.545,451.279 410.5,464C 394.545,464.888 385.211,457.388 382.5,441.5C 385.278,431.058 391.612,423.724 401.5,419.5 Z"/></g>
</svg>
