<?xml version="1.0" encoding="UTF-8"?>
<!DOCTYPE svg PUBLIC "-//W3C//DTD SVG 1.1//EN" "http://www.w3.org/Graphics/SVG/1.1/DTD/svg11.dtd">
<svg xmlns="http://www.w3.org/2000/svg" version="1.1" width="512px" height="512px" style="shape-rendering:geometricPrecision; text-rendering:geometricPrecision; image-rendering:optimizeQuality; fill-rule:evenodd; clip-rule:evenodd" xmlns:xlink="http://www.w3.org/1999/xlink">
<g><path style="opacity:0.997" fill="#dceaed" d="M 251.5,36.5 C 284.502,36.3334 317.502,36.5 350.5,37C 381,40.6652 406.167,54.1652 426,77.5C 442.212,96.4498 451.212,118.45 453,143.5C 453.667,218.167 453.667,292.833 453,367.5C 447.796,413.401 424.296,446.234 382.5,466C 372.231,470.234 361.564,472.901 350.5,474C 317.5,474.667 284.5,474.667 251.5,474C 248.624,473.562 245.957,472.562 243.5,471C 222.542,452.975 223.875,436.642 247.5,422C 281.119,420.694 314.786,420.028 348.5,420C 379.39,415.444 396.223,397.61 399,366.5C 399.667,292.5 399.667,218.5 399,144.5C 396.905,116.116 382.072,98.6156 354.5,92C 320.2,90.7081 285.867,90.0414 251.5,90C 248.624,89.5621 245.957,88.5621 243.5,87C 223.5,71.3333 223.5,55.6667 243.5,40C 246.158,38.522 248.825,37.3554 251.5,36.5 Z"/></g>
<g><path style="opacity:0.998" fill="#dceaed" d="M 207.5,143.5 C 214.473,142.536 220.807,144.036 226.5,148C 258,179.5 289.5,211 321,242.5C 327,251.167 327,259.833 321,268.5C 289.5,300 258,331.5 226.5,363C 218.073,368.583 209.407,368.916 200.5,364C 197,360.5 193.5,357 190,353.5C 183.814,343.735 184.48,334.402 192,325.5C 206.167,311.333 220.333,297.167 234.5,283C 183.167,282.667 131.833,282.333 80.5,282C 68.0052,277.34 60.3385,268.506 57.5,255.5C 60.3385,242.494 68.0052,233.66 80.5,229C 131.833,228.667 183.167,228.333 234.5,228C 220.333,213.833 206.167,199.667 192,185.5C 185.628,177.972 184.294,169.639 188,160.5C 193.187,153.134 199.687,147.467 207.5,143.5 Z"/></g>
</svg>
