<?xml version="1.0" encoding="UTF-8"?>
<!DOCTYPE svg PUBLIC "-//W3C//DTD SVG 1.1//EN" "http://www.w3.org/Graphics/SVG/1.1/DTD/svg11.dtd">
<svg xmlns="http://www.w3.org/2000/svg" version="1.1" width="512px" height="512px" style="shape-rendering:geometricPrecision; text-rendering:geometricPrecision; image-rendering:optimizeQuality; fill-rule:evenodd; clip-rule:evenodd" xmlns:xlink="http://www.w3.org/1999/xlink">
<g><path style="opacity:0.97" fill="#8baccf" d="M 251.5,35.5 C 284.502,35.3334 317.502,35.5 350.5,36C 381.516,39.7566 407.016,53.5899 427,77.5C 443.212,96.4498 452.212,118.45 454,143.5C 454.667,218.167 454.667,292.833 454,367.5C 452.212,392.55 443.212,414.55 427,433.5C 407.016,457.41 381.516,471.243 350.5,475C 317.5,475.667 284.5,475.667 251.5,475C 248.624,474.562 245.957,473.562 243.5,472C 221.209,453.298 222.542,436.298 247.5,421C 281.119,419.694 314.786,419.028 348.5,419C 379.059,414.774 395.559,397.274 398,366.5C 398.667,292.5 398.667,218.5 398,144.5C 396.008,116.643 381.508,99.4765 354.5,93C 320.2,91.7081 285.867,91.0414 251.5,91C 248.624,90.5621 245.957,89.5621 243.5,88C 239.333,83.8333 235.167,79.6667 231,75.5C 226.333,67.5 226.333,59.5 231,51.5C 235.167,47.3333 239.333,43.1667 243.5,39C 246.158,37.522 248.825,36.3554 251.5,35.5 Z"/></g>
<g><path style="opacity:0.974" fill="#8baccf" d="M 207.5,142.5 C 214.473,141.536 220.807,143.036 226.5,147C 258.333,178.833 290.167,210.667 322,242.5C 328,251.167 328,259.833 322,268.5C 290.167,300.333 258.333,332.167 226.5,364C 218.073,369.583 209.407,369.916 200.5,365C 194.508,360.018 189.674,354.185 186,347.5C 183.873,339.337 185.54,332.004 191,325.5C 204.833,311.667 218.667,297.833 232.5,284C 181.833,283.667 131.167,283.333 80.5,283C 72.6342,280.152 66.1342,275.318 61,268.5C 55,259.833 55,251.167 61,242.5C 66.1342,235.682 72.6342,230.848 80.5,228C 131.167,227.667 181.833,227.333 232.5,227C 218.667,213.167 204.833,199.333 191,185.5C 184.628,177.972 183.294,169.639 187,160.5C 192.518,152.803 199.351,146.803 207.5,142.5 Z"/></g>
</svg>
