<?xml version="1.0" encoding="UTF-8"?>
<!DOCTYPE svg PUBLIC "-//W3C//DTD SVG 1.1//EN" "http://www.w3.org/Graphics/SVG/1.1/DTD/svg11.dtd">
<svg xmlns="http://www.w3.org/2000/svg" version="1.1" width="418px" height="418px" style="shape-rendering:geometricPrecision; text-rendering:geometricPrecision; image-rendering:optimizeQuality; fill-rule:evenodd; clip-rule:evenodd" xmlns:xlink="http://www.w3.org/1999/xlink">
<g><path style="opacity:1" fill="#414359" d="M 45.5,-0.5 C 154.167,-0.5 262.833,-0.5 371.5,-0.5C 397.825,3.82536 413.159,19.1587 417.5,45.5C 417.5,154.167 417.5,262.833 417.5,371.5C 413.167,397.833 397.833,413.167 371.5,417.5C 262.833,417.5 154.167,417.5 45.5,417.5C 19.1667,413.167 3.83333,397.833 -0.5,371.5C -0.5,262.833 -0.5,154.167 -0.5,45.5C 3.83333,19.1667 19.1667,3.83333 45.5,-0.5 Z M 43.5,33.5 C 153.501,33.3333 263.501,33.5 373.5,34C 378,35.8333 381.167,39 383,43.5C 383.5,60.8301 383.667,78.1635 383.5,95.5C 266.833,95.5 150.167,95.5 33.5,95.5C 33.3334,78.1635 33.5001,60.8301 34,43.5C 36.0223,38.98 39.189,35.6467 43.5,33.5 Z M 33.5,129.5 C 150.167,129.5 266.833,129.5 383.5,129.5C 383.667,210.834 383.5,292.167 383,373.5C 381.167,378 378,381.167 373.5,383C 263.5,383.667 153.5,383.667 43.5,383C 39,381.167 35.8333,378 34,373.5C 33.5,292.167 33.3333,210.834 33.5,129.5 Z M 101.5,193.5 C 119.503,193.333 137.503,193.5 155.5,194C 157.333,194.5 158.5,195.667 159,197.5C 159.667,236.833 159.667,276.167 159,315.5C 158.5,317.333 157.333,318.5 155.5,319C 137.5,319.667 119.5,319.667 101.5,319C 99.6667,318.5 98.5,317.333 98,315.5C 97.3333,276.167 97.3333,236.833 98,197.5C 98.6897,195.65 99.8564,194.316 101.5,193.5 Z"/></g>
<g><path style="opacity:1" fill="#414359" d="M 78.5,47.5 C 89.5565,47.8899 95.8898,53.5565 97.5,64.5C 93.7894,79.6886 84.7894,84.1886 70.5,78C 61.1667,69 61.1667,60 70.5,51C 73.1579,49.522 75.8245,48.3554 78.5,47.5 Z"/></g>
<g><path style="opacity:1" fill="#414359" d="M 126.5,47.5 C 137.556,47.8899 143.89,53.5565 145.5,64.5C 141.789,79.6886 132.789,84.1886 118.5,78C 109.167,69 109.167,60 118.5,51C 121.158,49.522 123.825,48.3554 126.5,47.5 Z"/></g>
<g><path style="opacity:1" fill="#414359" d="M 174.5,47.5 C 185.556,47.8899 191.89,53.5565 193.5,64.5C 189.789,79.6886 180.789,84.1886 166.5,78C 157.167,69 157.167,60 166.5,51C 169.158,49.522 171.825,48.3554 174.5,47.5 Z"/></g>
<g><path style="opacity:1" fill="#414359" d="M 101.5,159.5 C 119.503,159.333 137.503,159.5 155.5,160C 177.333,163.167 189.833,175.667 193,197.5C 193.667,236.833 193.667,276.167 193,315.5C 189.833,337.333 177.333,349.833 155.5,353C 135.462,353.925 115.462,353.592 95.5,352C 76.787,346.952 66.287,334.785 64,315.5C 63.0342,274.134 63.3675,232.801 65,191.5C 70.2169,172.777 82.3836,162.11 101.5,159.5 Z M 101.5,193.5 C 99.8564,194.316 98.6897,195.65 98,197.5C 97.3333,236.833 97.3333,276.167 98,315.5C 98.5,317.333 99.6667,318.5 101.5,319C 119.5,319.667 137.5,319.667 155.5,319C 157.333,318.5 158.5,317.333 159,315.5C 159.667,276.167 159.667,236.833 159,197.5C 158.5,195.667 157.333,194.5 155.5,194C 137.503,193.5 119.503,193.333 101.5,193.5 Z"/></g>
<g><path style="opacity:1" fill="#414359" d="M 238.5,175.5 C 271.835,175.333 305.168,175.5 338.5,176C 347.49,177.825 352.49,183.325 353.5,192.5C 352.49,201.675 347.49,207.175 338.5,209C 305.167,209.667 271.833,209.667 238.5,209C 229.51,207.175 224.51,201.675 223.5,192.5C 224.697,183.312 229.697,177.645 238.5,175.5 Z"/></g>
<g><path style="opacity:1" fill="#414359" d="M 238.5,239.5 C 271.835,239.333 305.168,239.5 338.5,240C 347.49,241.825 352.49,247.325 353.5,256.5C 352.49,265.675 347.49,271.175 338.5,273C 305.167,273.667 271.833,273.667 238.5,273C 229.51,271.175 224.51,265.675 223.5,256.5C 224.697,247.312 229.697,241.645 238.5,239.5 Z"/></g>
<g><path style="opacity:1" fill="#414359" d="M 238.5,303.5 C 271.835,303.333 305.168,303.5 338.5,304C 347.49,305.825 352.49,311.325 353.5,320.5C 352.49,329.675 347.49,335.175 338.5,337C 305.167,337.667 271.833,337.667 238.5,337C 229.51,335.175 224.51,329.675 223.5,320.5C 224.697,311.312 229.697,305.645 238.5,303.5 Z"/></g>
</svg>
