<?xml version="1.0" encoding="UTF-8"?>
<!DOCTYPE svg PUBLIC "-//W3C//DTD SVG 1.1//EN" "http://www.w3.org/Graphics/SVG/1.1/DTD/svg11.dtd">
<svg xmlns="http://www.w3.org/2000/svg" version="1.1" width="1025px" height="208px" style="shape-rendering:geometricPrecision; text-rendering:geometricPrecision; image-rendering:optimizeQuality; fill-rule:evenodd; clip-rule:evenodd" xmlns:xlink="http://www.w3.org/1999/xlink">
<g><path style="opacity:0.962" fill="#ddeaee" d="M 299.5,-0.5 C 301.833,-0.5 304.167,-0.5 306.5,-0.5C 318.078,3.98841 322.244,12.3217 319,24.5C 315.652,31.3425 310.152,34.6758 302.5,34.5C 288.773,32.9188 283.273,25.2522 286,11.5C 288.839,5.48696 293.339,1.48696 299.5,-0.5 Z"/></g>
<g><path style="opacity:0.955" fill="#ddeaee" d="M 748.5,-0.5 C 750.833,-0.5 753.167,-0.5 755.5,-0.5C 767.076,3.98568 771.243,12.319 768,24.5C 761.575,34.7986 752.742,37.2986 741.5,32C 734.404,25.5111 732.571,17.6778 736,8.5C 739.236,4.08184 743.402,1.08184 748.5,-0.5 Z"/></g>
<g><path style="opacity:0.974" fill="#dce9ed" d="M 932.5,1.5 C 936.605,1.23375 940.605,1.73375 944.5,3C 946.667,3.83333 948.167,5.33333 949,7.5C 949.333,38.8333 949.667,70.1667 950,101.5C 966.795,81.7033 983.961,62.2033 1001.5,43C 1008.44,40.099 1014.27,41.599 1019,47.5C 1022.48,53.0201 1022.15,58.3534 1018,63.5C 994.962,88.8698 972.295,114.536 950,140.5C 949.667,151.167 949.333,161.833 949,172.5C 946.257,176.872 942.257,178.872 937,178.5C 931.575,179.147 927.575,177.147 925,172.5C 924.333,117.5 924.333,62.5 925,7.5C 926.707,4.40957 929.207,2.40957 932.5,1.5 Z"/></g>
<g><path style="opacity:0.978" fill="#ddeaee" d="M 131.5,43.5 C 138.445,41.7747 143.278,44.108 146,50.5C 152.308,74.0646 158.141,97.7313 163.5,121.5C 165.167,121.5 166.833,121.5 168.5,121.5C 173.858,97.7328 179.692,74.0661 186,50.5C 188.678,45.7388 192.845,43.4055 198.5,43.5C 204.117,43.3885 208.284,45.7219 211,50.5C 216.993,74.1388 222.826,97.8055 228.5,121.5C 230.167,121.5 231.833,121.5 233.5,121.5C 239.014,97.4419 244.848,73.4419 251,49.5C 252.935,45.1981 256.268,43.1981 261,43.5C 266.371,43.3952 270.705,45.3952 274,49.5C 274.167,51 274.333,52.5 274.5,54C 265.359,94.0621 255.359,133.895 244.5,173.5C 235.5,180.167 226.5,180.167 217.5,173.5C 211.692,152.937 206.192,132.27 201,111.5C 199.688,109.342 198.022,109.009 196,110.5C 190.964,131.646 185.464,152.646 179.5,173.5C 171.199,179.309 162.532,179.809 153.5,175C 152.54,173.581 151.707,172.081 151,170.5C 141.089,131.688 131.255,92.8546 121.5,54C 123.004,48.6647 126.337,45.1647 131.5,43.5 Z"/></g>
<g><path style="opacity:0.97" fill="#dceaed" d="M 298.5,43.5 C 302.582,43.3436 306.582,43.8436 310.5,45C 312.726,46.2273 314.226,48.0607 315,50.5C 315.667,90.8333 315.667,131.167 315,171.5C 312.543,176.678 308.376,179.012 302.5,178.5C 296.37,178.696 292.203,176.029 290,170.5C 289.333,130.833 289.333,91.1667 290,51.5C 291.419,47.2452 294.253,44.5785 298.5,43.5 Z"/></g>
<g><path style="opacity:0.955" fill="#dde9ee" d="M 747.5,43.5 C 751.582,43.3436 755.582,43.8436 759.5,45C 761.378,46.5429 762.878,48.3762 764,50.5C 764.667,90.8333 764.667,131.167 764,171.5C 761.498,176.681 757.331,179.014 751.5,178.5C 745.37,178.696 741.203,176.029 739,170.5C 738.333,130.833 738.333,91.1667 739,51.5C 740.419,47.2452 743.253,44.5785 747.5,43.5 Z"/></g>
<g><path style="opacity:0.968" fill="#ddeaee" d="M -0.5,147.5 C -0.5,143.5 -0.5,139.5 -0.5,135.5C 5.50397,128.338 12.8373,126.838 21.5,131C 23.0488,132.214 24.2155,133.714 25,135.5C 24.9554,140.43 25.9554,145.097 28,149.5C 29.6374,151.81 31.804,153.31 34.5,154C 47.1667,154.667 59.8333,154.667 72.5,154C 77.0709,152.427 79.9043,149.26 81,144.5C 81.6667,140.167 81.6667,135.833 81,131.5C 79.8333,126.333 76.6667,123.167 71.5,122C 57.8333,121.667 44.1667,121.333 30.5,121C 9.78794,117.293 -0.212058,104.96 0.5,84C -0.185112,61.7104 10.4816,48.7104 32.5,45C 46.8333,44.3333 61.1667,44.3333 75.5,45C 97.8786,49.371 108.045,62.871 106,85.5C 105.215,87.286 104.049,88.786 102.5,90C 86.6552,95.6722 78.8218,90.1722 79,73.5C 76.6101,68.8859 72.7768,66.7192 67.5,67C 63,66.8333 58.5,66.6667 54,66.5C 46.3377,66.2254 38.8377,67.0587 31.5,69C 29.3834,70.7309 27.8834,72.8976 27,75.5C 26.3333,80.5 26.3333,85.5 27,90.5C 28.7167,95.5513 32.2167,98.3846 37.5,99C 51.1667,99.3333 64.8333,99.6667 78.5,100C 98.556,104.902 108.223,117.735 107.5,138.5C 107.589,161.915 95.9222,174.748 72.5,177C 60.1667,177.667 47.8333,177.667 35.5,177C 16.0746,175.836 4.07459,166.003 -0.5,147.5 Z"/></g>
<g><path style="opacity:0.967" fill="#dde9ee" d="M 360.5,207.5 C 357.833,207.5 355.167,207.5 352.5,207.5C 347.849,206.346 345.015,203.346 344,198.5C 343.333,150.833 343.333,103.167 344,55.5C 344.715,49.7849 347.882,46.2849 353.5,45C 375.833,44.3333 398.167,44.3333 420.5,45C 435.203,46.7168 444.703,54.5501 449,68.5C 449.667,96.5 449.667,124.5 449,152.5C 448.338,157.482 446.338,161.816 443,165.5C 430.917,175.15 417.083,179.15 401.5,177.5C 395.446,177.537 389.446,177.037 383.5,176C 379.757,171.521 378.591,166.354 380,160.5C 380.833,157.667 382.667,155.833 385.5,155C 395.5,154.667 405.5,154.333 415.5,154C 419.333,152.833 421.833,150.333 423,146.5C 424.635,123.897 424.968,101.23 424,78.5C 423.456,73.964 421.29,70.464 417.5,68C 401.543,66.5962 385.543,66.0962 369.5,66.5C 369.667,111.168 369.5,155.835 369,200.5C 367.547,204.628 364.714,206.961 360.5,207.5 Z"/></g>
<g><path style="opacity:0.966" fill="#dde9ed" d="M 502.5,44.5 C 519.17,44.3334 535.837,44.5001 552.5,45C 564.784,47.036 573.617,53.536 579,64.5C 579.988,67.4245 580.654,70.4245 581,73.5C 581.667,86.1667 581.667,98.8333 581,111.5C 579.833,116.667 576.667,119.833 571.5,121C 553.167,121.667 534.833,121.667 516.5,121C 512.159,118.714 510.159,115.047 510.5,110C 510.473,105.707 512.14,102.373 515.5,100C 528.829,99.5001 542.163,99.3334 555.5,99.5C 555.666,91.8261 555.5,84.1594 555,76.5C 553.689,70.8532 550.189,67.6865 544.5,67C 533.5,66.3333 522.5,66.3333 511.5,67C 505.093,68.7394 501.593,72.906 501,79.5C 500.054,101.876 500.388,124.209 502,146.5C 503.27,150.77 506.104,153.27 510.5,154C 522.5,154.667 534.5,154.667 546.5,154C 549.625,153.021 552.125,151.187 554,148.5C 552.958,132.532 560.125,126.365 575.5,130C 578.428,131.26 580.261,133.427 581,136.5C 583.566,157.876 574.399,171.043 553.5,176C 536.167,176.667 518.833,176.667 501.5,176C 487.64,172.807 479.14,164.307 476,150.5C 475.333,123.833 475.333,97.1667 476,70.5C 477.124,64.0851 479.957,58.5851 484.5,54C 490.15,50.01 496.15,46.8433 502.5,44.5 Z"/></g>
<g><path style="opacity:0.975" fill="#ddeaed" d="M 623.5,207.5 C 620.833,207.5 618.167,207.5 615.5,207.5C 610.849,206.346 608.015,203.346 607,198.5C 606.333,151.167 606.333,103.833 607,56.5C 607.251,50.2499 610.417,46.4166 616.5,45C 638.833,44.3333 661.167,44.3333 683.5,45C 702.632,48.1244 712.465,59.291 713,78.5C 713.907,103.193 713.574,127.86 712,152.5C 711.338,157.482 709.338,161.816 706,165.5C 693.917,175.15 680.083,179.15 664.5,177.5C 658.446,177.537 652.446,177.037 646.5,176C 642.757,171.521 641.591,166.354 643,160.5C 643.833,157.667 645.667,155.833 648.5,155C 658.167,154.667 667.833,154.333 677.5,154C 681.896,153.27 684.73,150.77 686,146.5C 687.635,123.897 687.968,101.23 687,78.5C 686.456,73.964 684.29,70.464 680.5,68C 664.543,66.5962 648.543,66.0962 632.5,66.5C 632.667,111.168 632.5,155.835 632,200.5C 630.547,204.628 627.714,206.961 623.5,207.5 Z"/></g>
<g><path style="opacity:0.964" fill="#dce9ed" d="M 820.5,44.5 C 836.837,44.3334 853.17,44.5001 869.5,45C 884.203,46.7168 893.703,54.5501 898,68.5C 898.667,77.1667 898.667,85.8333 898,94.5C 896.74,97.4281 894.573,99.2614 891.5,100C 887.833,100.667 884.167,100.667 880.5,100C 878.152,99.6541 876.319,98.4875 875,96.5C 873.868,89.2238 872.868,81.8905 872,74.5C 870.01,70.5095 866.843,68.0095 862.5,67C 851.5,66.3333 840.5,66.3333 829.5,67C 823.811,67.6865 820.311,70.8532 819,76.5C 818.333,99.1667 818.333,121.833 819,144.5C 820.068,149.235 822.901,152.402 827.5,154C 833.5,154.167 839.5,154.333 845.5,154.5C 852.576,154.61 859.576,154.11 866.5,153C 869.381,151.749 871.214,149.583 872,146.5C 873.163,139.897 873.83,133.23 874,126.5C 874.785,124.714 875.951,123.214 877.5,122C 882.382,120.445 887.382,120.112 892.5,121C 894.624,122.122 896.457,123.622 898,125.5C 898.667,134.167 898.667,142.833 898,151.5C 894.959,163.542 887.459,171.375 875.5,175C 856.552,176.615 837.552,176.949 818.5,176C 803.538,171.708 795.038,161.874 793,146.5C 792.056,120.464 792.389,94.4644 794,68.5C 795.517,62.3178 798.683,57.1511 803.5,53C 808.99,49.5882 814.657,46.7548 820.5,44.5 Z"/></g>
<g><path style="opacity:0.954" fill="#dce9ee" d="M 986.5,111.5 C 991.855,110.345 996.022,112.012 999,116.5C 1007,131.833 1015,147.167 1023,162.5C 1025.25,170.505 1022.42,175.672 1014.5,178C 1008.7,180.73 1003.87,179.563 1000,174.5C 990.875,158.084 982.708,141.251 975.5,124C 976.934,117.74 980.601,113.573 986.5,111.5 Z"/></g>
</svg>
