<?xml version="1.0" encoding="UTF-8"?>
<svg xmlns="http://www.w3.org/2000/svg" xmlns:xlink="http://www.w3.org/1999/xlink" width="237px" height="48px" viewBox="0 0 236 48" version="1.1">
<defs>
<filter id="alpha" filterUnits="objectBoundingBox" x="0%" y="0%" width="100%" height="100%">
  <feColorMatrix type="matrix" in="SourceGraphic" values="0 0 0 0 1 0 0 0 0 1 0 0 0 0 1 0 0 0 1 0"/>
</filter>
<mask id="mask0">
  <g filter="url(#alpha)">
<rect x="0" y="0" width="236" height="48" style="fill:rgb(0%,0%,0%);fill-opacity:0.960784;stroke:none;"/>
  </g>
</mask>
<clipPath id="clip1">
  <rect x="0" y="0" width="236" height="48"/>
</clipPath>
<g id="surface5" clip-path="url(#clip1)">
<path style=" stroke:none;fill-rule:evenodd;fill:rgb(86.666667%,91.764706%,93.333333%);fill-opacity:1;" d="M 68.957031 -0.117188 C 69.496094 -0.117188 70.03125 -0.117188 70.570312 -0.117188 C 73.234375 0.921875 74.195312 2.84375 73.449219 5.652344 C 72.675781 7.234375 71.410156 8.003906 69.648438 7.960938 C 66.488281 7.597656 65.222656 5.828125 65.851562 2.652344 C 66.503906 1.265625 67.539062 0.34375 68.957031 -0.117188 Z M 68.957031 -0.117188 "/>
</g>
<mask id="mask1">
  <g filter="url(#alpha)">
<rect x="0" y="0" width="236" height="48" style="fill:rgb(0%,0%,0%);fill-opacity:0.956863;stroke:none;"/>
  </g>
</mask>
<clipPath id="clip2">
  <rect x="0" y="0" width="236" height="48"/>
</clipPath>
<g id="surface8" clip-path="url(#clip2)">
<path style=" stroke:none;fill-rule:evenodd;fill:rgb(86.666667%,91.764706%,93.333333%);fill-opacity:1;" d="M 172.335938 -0.117188 C 172.875 -0.117188 173.410156 -0.117188 173.949219 -0.117188 C 176.613281 0.917969 177.574219 2.84375 176.828125 5.652344 C 175.347656 8.03125 173.3125 8.605469 170.726562 7.382812 C 169.09375 5.886719 168.671875 4.078125 169.460938 1.960938 C 170.203125 0.941406 171.164062 0.25 172.335938 -0.117188 Z M 172.335938 -0.117188 "/>
</g>
<mask id="mask2">
  <g filter="url(#alpha)">
<rect x="0" y="0" width="236" height="48" style="fill:rgb(0%,0%,0%);fill-opacity:0.972549;stroke:none;"/>
  </g>
</mask>
<clipPath id="clip3">
  <rect x="0" y="0" width="236" height="48"/>
</clipPath>
<g id="surface11" clip-path="url(#clip3)">
<path style=" stroke:none;fill-rule:evenodd;fill:rgb(86.27451%,91.372549%,92.941176%);fill-opacity:1;" d="M 214.703125 0.347656 C 215.648438 0.285156 216.570312 0.398438 217.464844 0.691406 C 217.964844 0.882812 218.308594 1.230469 218.5 1.730469 C 218.578125 8.960938 218.65625 16.191406 218.730469 23.421875 C 222.597656 18.855469 226.550781 14.355469 230.589844 9.921875 C 232.1875 9.253906 233.53125 9.601562 234.617188 10.960938 C 235.417969 12.234375 235.34375 13.464844 234.386719 14.652344 C 229.082031 20.507812 223.863281 26.429688 218.730469 32.421875 C 218.65625 34.882812 218.578125 37.347656 218.5 39.808594 C 217.871094 40.816406 216.949219 41.277344 215.738281 41.191406 C 214.488281 41.339844 213.570312 40.878906 212.976562 39.808594 C 212.820312 27.117188 212.820312 14.421875 212.976562 1.730469 C 213.367188 1.019531 213.945312 0.554688 214.703125 0.347656 Z M 214.703125 0.347656 "/>
</g>
<mask id="mask3">
  <g filter="url(#alpha)">
<rect x="0" y="0" width="236" height="48" style="fill:rgb(0%,0%,0%);fill-opacity:0.976471;stroke:none;"/>
  </g>
</mask>
<clipPath id="clip4">
  <rect x="0" y="0" width="236" height="48"/>
</clipPath>
<g id="surface14" clip-path="url(#clip4)">
<path style=" stroke:none;fill-rule:evenodd;fill:rgb(86.666667%,91.764706%,93.333333%);fill-opacity:1;" d="M 30.277344 10.039062 C 31.875 9.640625 32.988281 10.179688 33.617188 11.652344 C 35.066406 17.09375 36.410156 22.554688 37.644531 28.039062 C 38.027344 28.039062 38.414062 28.039062 38.796875 28.039062 C 40.03125 22.554688 41.371094 17.09375 42.824219 11.652344 C 43.441406 10.554688 44.402344 10.015625 45.703125 10.039062 C 46.996094 10.011719 47.957031 10.550781 48.582031 11.652344 C 49.960938 17.109375 51.304688 22.570312 52.609375 28.039062 C 52.996094 28.039062 53.378906 28.039062 53.761719 28.039062 C 55.03125 22.488281 56.375 16.949219 57.792969 11.421875 C 58.238281 10.429688 59.003906 9.96875 60.09375 10.039062 C 61.332031 10.015625 62.328125 10.476562 63.085938 11.421875 C 63.125 11.769531 63.164062 12.117188 63.203125 12.460938 C 61.097656 21.707031 58.792969 30.898438 56.292969 40.039062 C 54.222656 41.578125 52.148438 41.578125 50.078125 40.039062 C 48.742188 35.292969 47.472656 30.523438 46.277344 25.730469 C 45.976562 25.234375 45.59375 25.15625 45.128906 25.5 C 43.96875 30.378906 42.703125 35.226562 41.328125 40.039062 C 39.417969 41.378906 37.421875 41.496094 35.34375 40.382812 C 35.121094 40.058594 34.929688 39.710938 34.765625 39.347656 C 32.484375 30.390625 30.21875 21.429688 27.976562 12.460938 C 28.320312 11.230469 29.089844 10.421875 30.277344 10.039062 Z M 30.277344 10.039062 "/>
</g>
<mask id="mask4">
  <g filter="url(#alpha)">
<rect x="0" y="0" width="236" height="48" style="fill:rgb(0%,0%,0%);fill-opacity:0.968627;stroke:none;"/>
  </g>
</mask>
<clipPath id="clip5">
  <rect x="0" y="0" width="236" height="48"/>
</clipPath>
<g id="surface17" clip-path="url(#clip5)">
<path style=" stroke:none;fill-rule:evenodd;fill:rgb(86.27451%,91.764706%,92.941176%);fill-opacity:1;" d="M 68.726562 10.039062 C 69.667969 10.003906 70.589844 10.117188 71.492188 10.382812 C 72.003906 10.667969 72.347656 11.089844 72.527344 11.652344 C 72.679688 20.960938 72.679688 30.269531 72.527344 39.578125 C 71.960938 40.773438 71 41.308594 69.648438 41.191406 C 68.238281 41.238281 67.277344 40.621094 66.769531 39.347656 C 66.617188 30.191406 66.617188 21.039062 66.769531 11.882812 C 67.097656 10.902344 67.75 10.289062 68.726562 10.039062 Z M 68.726562 10.039062 "/>
</g>
<mask id="mask5">
  <g filter="url(#alpha)">
<rect x="0" y="0" width="236" height="48" style="fill:rgb(0%,0%,0%);fill-opacity:0.956863;stroke:none;"/>
  </g>
</mask>
<clipPath id="clip6">
  <rect x="0" y="0" width="236" height="48"/>
</clipPath>
<g id="surface20" clip-path="url(#clip6)">
<path style=" stroke:none;fill-rule:evenodd;fill:rgb(86.666667%,91.372549%,93.333333%);fill-opacity:1;" d="M 172.105469 10.039062 C 173.046875 10.003906 173.96875 10.117188 174.871094 10.382812 C 175.300781 10.742188 175.648438 11.164062 175.90625 11.652344 C 176.058594 20.960938 176.058594 30.269531 175.90625 39.578125 C 175.332031 40.773438 174.371094 41.3125 173.027344 41.191406 C 171.617188 41.238281 170.65625 40.621094 170.148438 39.347656 C 169.996094 30.191406 169.996094 21.039062 170.148438 11.882812 C 170.476562 10.902344 171.128906 10.289062 172.105469 10.039062 Z M 172.105469 10.039062 "/>
</g>
<mask id="mask6">
  <g filter="url(#alpha)">
<rect x="0" y="0" width="236" height="48" style="fill:rgb(0%,0%,0%);fill-opacity:0.968627;stroke:none;"/>
  </g>
</mask>
<clipPath id="clip7">
  <rect x="0" y="0" width="236" height="48"/>
</clipPath>
<g id="surface23" clip-path="url(#clip7)">
<path style=" stroke:none;fill-rule:evenodd;fill:rgb(86.666667%,91.764706%,93.333333%);fill-opacity:1;" d="M -0.113281 34.039062 C -0.113281 33.117188 -0.113281 32.191406 -0.113281 31.269531 C 1.265625 29.617188 2.957031 29.269531 4.949219 30.230469 C 5.308594 30.511719 5.574219 30.855469 5.757812 31.269531 C 5.746094 32.40625 5.976562 33.484375 6.445312 34.5 C 6.824219 35.03125 7.324219 35.378906 7.945312 35.539062 C 10.859375 35.691406 13.777344 35.691406 16.691406 35.539062 C 17.746094 35.175781 18.398438 34.445312 18.648438 33.347656 C 18.804688 32.347656 18.804688 31.347656 18.648438 30.347656 C 18.382812 29.152344 17.652344 28.421875 16.460938 28.152344 C 13.316406 28.078125 10.167969 28 7.023438 27.921875 C 2.253906 27.066406 -0.046875 24.222656 0.113281 19.382812 C -0.0429688 14.242188 2.414062 11.242188 7.484375 10.382812 C 10.78125 10.230469 14.082031 10.230469 17.382812 10.382812 C 22.535156 11.394531 24.875 14.507812 24.40625 19.730469 C 24.226562 20.144531 23.957031 20.488281 23.601562 20.769531 C 19.953125 22.078125 18.148438 20.808594 18.1875 16.960938 C 17.640625 15.898438 16.757812 15.398438 15.542969 15.460938 C 14.503906 15.421875 13.46875 15.382812 12.433594 15.347656 C 10.667969 15.28125 8.941406 15.476562 7.253906 15.921875 C 6.765625 16.324219 6.421875 16.824219 6.214844 17.421875 C 6.0625 18.578125 6.0625 19.730469 6.214844 20.882812 C 6.613281 22.050781 7.417969 22.703125 8.632812 22.847656 C 11.78125 22.921875 14.925781 23 18.074219 23.078125 C 22.691406 24.207031 24.917969 27.167969 24.75 31.960938 C 24.773438 37.363281 22.085938 40.328125 16.691406 40.847656 C 13.851562 41 11.011719 41 8.171875 40.847656 C 3.699219 40.578125 0.9375 38.308594 -0.113281 34.039062 Z M -0.113281 34.039062 "/>
</g>
<mask id="mask7">
  <g filter="url(#alpha)">
<rect x="0" y="0" width="236" height="48" style="fill:rgb(0%,0%,0%);fill-opacity:0.968627;stroke:none;"/>
  </g>
</mask>
<clipPath id="clip8">
  <rect x="0" y="0" width="236" height="48"/>
</clipPath>
<g id="surface26" clip-path="url(#clip8)">
<path style=" stroke:none;fill-rule:evenodd;fill:rgb(86.666667%,91.372549%,93.333333%);fill-opacity:1;" d="M 83.003906 47.882812 C 82.390625 47.882812 81.773438 47.882812 81.160156 47.882812 C 80.089844 47.617188 79.4375 46.925781 79.203125 45.808594 C 79.050781 34.808594 79.050781 23.808594 79.203125 12.808594 C 79.367188 11.488281 80.097656 10.679688 81.390625 10.382812 C 86.535156 10.230469 91.675781 10.230469 96.816406 10.382812 C 100.203125 10.78125 102.390625 12.589844 103.378906 15.808594 C 103.53125 22.269531 103.53125 28.730469 103.378906 35.191406 C 103.226562 36.34375 102.765625 37.34375 102 38.191406 C 99.214844 40.417969 96.03125 41.34375 92.441406 40.960938 C 91.050781 40.96875 89.667969 40.855469 88.296875 40.617188 C 87.4375 39.582031 87.167969 38.390625 87.492188 37.039062 C 87.683594 36.382812 88.105469 35.960938 88.757812 35.769531 C 91.0625 35.691406 93.363281 35.617188 95.667969 35.539062 C 96.550781 35.269531 97.125 34.691406 97.394531 33.808594 C 97.769531 28.589844 97.847656 23.359375 97.625 18.117188 C 97.5 17.070312 97 16.261719 96.125 15.691406 C 92.453125 15.367188 88.769531 15.253906 85.074219 15.347656 C 85.113281 25.652344 85.074219 35.960938 84.960938 46.269531 C 84.625 47.222656 83.972656 47.761719 83.003906 47.882812 Z M 83.003906 47.882812 "/>
</g>
<mask id="mask8">
  <g filter="url(#alpha)">
<rect x="0" y="0" width="236" height="48" style="fill:rgb(0%,0%,0%);fill-opacity:0.964706;stroke:none;"/>
  </g>
</mask>
<clipPath id="clip9">
  <rect x="0" y="0" width="236" height="48"/>
</clipPath>
<g id="surface29" clip-path="url(#clip9)">
<path style=" stroke:none;fill-rule:evenodd;fill:rgb(86.666667%,91.372549%,92.941176%);fill-opacity:1;" d="M 115.699219 10.269531 C 119.535156 10.230469 123.375 10.269531 127.210938 10.382812 C 130.039062 10.855469 132.070312 12.355469 133.3125 14.882812 C 133.539062 15.558594 133.691406 16.25 133.773438 16.960938 C 133.925781 19.882812 133.925781 22.808594 133.773438 25.730469 C 133.503906 26.921875 132.773438 27.652344 131.585938 27.921875 C 127.363281 28.078125 123.140625 28.078125 118.921875 27.921875 C 117.921875 27.394531 117.460938 26.550781 117.539062 25.382812 C 117.535156 24.394531 117.917969 23.625 118.691406 23.078125 C 121.757812 22.960938 124.828125 22.921875 127.902344 22.960938 C 127.9375 21.191406 127.902344 19.421875 127.785156 17.652344 C 127.484375 16.351562 126.675781 15.621094 125.367188 15.460938 C 122.835938 15.308594 120.300781 15.308594 117.769531 15.460938 C 116.292969 15.863281 115.488281 16.824219 115.351562 18.347656 C 115.132812 23.511719 115.210938 28.664062 115.582031 33.808594 C 115.875 34.792969 116.527344 35.371094 117.539062 35.539062 C 120.300781 35.691406 123.066406 35.691406 125.828125 35.539062 C 126.546875 35.3125 127.125 34.890625 127.554688 34.269531 C 127.316406 30.585938 128.964844 29.160156 132.503906 30 C 133.179688 30.289062 133.601562 30.789062 133.773438 31.5 C 134.363281 36.433594 132.25 39.472656 127.441406 40.617188 C 123.449219 40.769531 119.457031 40.769531 115.46875 40.617188 C 112.277344 39.878906 110.320312 37.917969 109.597656 34.730469 C 109.441406 28.578125 109.441406 22.421875 109.597656 16.269531 C 109.855469 14.789062 110.507812 13.519531 111.554688 12.460938 C 112.855469 11.539062 114.234375 10.808594 115.699219 10.269531 Z M 115.699219 10.269531 "/>
</g>
<mask id="mask9">
  <g filter="url(#alpha)">
<rect x="0" y="0" width="236" height="48" style="fill:rgb(0%,0%,0%);fill-opacity:0.976471;stroke:none;"/>
  </g>
</mask>
<clipPath id="clip10">
  <rect x="0" y="0" width="236" height="48"/>
</clipPath>
<g id="surface32" clip-path="url(#clip10)">
<path style=" stroke:none;fill-rule:evenodd;fill:rgb(86.666667%,91.764706%,92.941176%);fill-opacity:1;" d="M 143.558594 47.882812 C 142.941406 47.882812 142.328125 47.882812 141.714844 47.882812 C 140.644531 47.617188 139.992188 46.925781 139.757812 45.808594 C 139.605469 34.882812 139.605469 23.960938 139.757812 13.039062 C 139.816406 11.597656 140.542969 10.710938 141.945312 10.382812 C 147.085938 10.230469 152.230469 10.230469 157.371094 10.382812 C 161.777344 11.105469 164.039062 13.683594 164.164062 18.117188 C 164.371094 23.8125 164.296875 29.507812 163.933594 35.191406 C 163.78125 36.34375 163.320312 37.34375 162.550781 38.191406 C 159.769531 40.417969 156.585938 41.34375 152.996094 40.960938 C 151.601562 40.96875 150.222656 40.855469 148.851562 40.617188 C 147.992188 39.582031 147.722656 38.390625 148.046875 37.039062 C 148.238281 36.382812 148.660156 35.960938 149.3125 35.769531 C 151.539062 35.691406 153.765625 35.617188 155.992188 35.539062 C 157.003906 35.371094 157.65625 34.792969 157.949219 33.808594 C 158.324219 28.589844 158.402344 23.359375 158.175781 18.117188 C 158.050781 17.070312 157.554688 16.261719 156.679688 15.691406 C 153.007812 15.367188 149.324219 15.253906 145.628906 15.347656 C 145.667969 25.652344 145.628906 35.960938 145.515625 46.269531 C 145.179688 47.222656 144.527344 47.761719 143.558594 47.882812 Z M 143.558594 47.882812 "/>
</g>
<mask id="mask10">
  <g filter="url(#alpha)">
<rect x="0" y="0" width="236" height="48" style="fill:rgb(0%,0%,0%);fill-opacity:0.964706;stroke:none;"/>
  </g>
</mask>
<clipPath id="clip11">
  <rect x="0" y="0" width="236" height="48"/>
</clipPath>
<g id="surface35" clip-path="url(#clip11)">
<path style=" stroke:none;fill-rule:evenodd;fill:rgb(86.27451%,91.372549%,92.941176%);fill-opacity:1;" d="M 188.914062 10.269531 C 192.675781 10.230469 196.4375 10.269531 200.195312 10.382812 C 203.582031 10.78125 205.769531 12.589844 206.757812 15.808594 C 206.914062 17.808594 206.914062 19.808594 206.757812 21.808594 C 206.46875 22.484375 205.96875 22.90625 205.261719 23.078125 C 204.417969 23.230469 203.574219 23.230469 202.730469 23.078125 C 202.1875 22.996094 201.765625 22.726562 201.464844 22.269531 C 201.203125 20.589844 200.972656 18.898438 200.773438 17.191406 C 200.316406 16.269531 199.585938 15.695312 198.585938 15.460938 C 196.050781 15.308594 193.519531 15.308594 190.988281 15.460938 C 189.675781 15.621094 188.871094 16.351562 188.570312 17.652344 C 188.417969 22.882812 188.417969 28.117188 188.570312 33.347656 C 188.816406 34.4375 189.46875 35.167969 190.527344 35.539062 C 191.910156 35.578125 193.289062 35.617188 194.671875 35.652344 C 196.300781 35.679688 197.914062 35.5625 199.507812 35.308594 C 200.167969 35.019531 200.589844 34.519531 200.773438 33.808594 C 201.039062 32.285156 201.195312 30.746094 201.234375 29.191406 C 201.414062 28.78125 201.683594 28.433594 202.039062 28.152344 C 203.164062 27.796875 204.3125 27.71875 205.492188 27.921875 C 205.980469 28.183594 206.402344 28.527344 206.757812 28.960938 C 206.914062 30.960938 206.914062 32.960938 206.757812 34.960938 C 206.058594 37.742188 204.332031 39.546875 201.578125 40.382812 C 197.214844 40.757812 192.839844 40.835938 188.453125 40.617188 C 185.007812 39.625 183.050781 37.355469 182.582031 33.808594 C 182.367188 27.800781 182.441406 21.800781 182.8125 15.808594 C 183.164062 14.382812 183.890625 13.1875 185 12.230469 C 186.265625 11.445312 187.570312 10.789062 188.914062 10.269531 Z M 188.914062 10.269531 "/>
</g>
<mask id="mask11">
  <g filter="url(#alpha)">
<rect x="0" y="0" width="236" height="48" style="fill:rgb(0%,0%,0%);fill-opacity:0.952941;stroke:none;"/>
  </g>
</mask>
<clipPath id="clip12">
  <rect x="0" y="0" width="236" height="48"/>
</clipPath>
<g id="surface38" clip-path="url(#clip12)">
<path style=" stroke:none;fill-rule:evenodd;fill:rgb(86.27451%,91.372549%,93.333333%);fill-opacity:1;" d="M 227.136719 25.730469 C 228.367188 25.464844 229.328125 25.847656 230.011719 26.882812 C 231.855469 30.421875 233.699219 33.960938 235.539062 37.5 C 236.058594 39.347656 235.40625 40.539062 233.582031 41.078125 C 232.246094 41.707031 231.136719 41.4375 230.242188 40.269531 C 228.144531 36.480469 226.261719 32.597656 224.601562 28.617188 C 224.933594 27.171875 225.777344 26.210938 227.136719 25.730469 Z M 227.136719 25.730469 "/>
</g>
</defs>
<g id="surface1">
<use xlink:href="#surface5" mask="url(#mask0)"/>
<use xlink:href="#surface8" mask="url(#mask1)"/>
<use xlink:href="#surface11" mask="url(#mask2)"/>
<use xlink:href="#surface14" mask="url(#mask3)"/>
<use xlink:href="#surface17" mask="url(#mask4)"/>
<use xlink:href="#surface20" mask="url(#mask5)"/>
<use xlink:href="#surface23" mask="url(#mask6)"/>
<use xlink:href="#surface26" mask="url(#mask7)"/>
<use xlink:href="#surface29" mask="url(#mask8)"/>
<use xlink:href="#surface32" mask="url(#mask9)"/>
<use xlink:href="#surface35" mask="url(#mask10)"/>
<use xlink:href="#surface38" mask="url(#mask11)"/>
</g>
</svg>
