<?xml version="1.0" encoding="UTF-8"?>
<!DOCTYPE svg PUBLIC "-//W3C//DTD SVG 1.1//EN" "http://www.w3.org/Graphics/SVG/1.1/DTD/svg11.dtd">
<svg xmlns="http://www.w3.org/2000/svg" version="1.1" width="321px" height="321px" style="shape-rendering:geometricPrecision; text-rendering:geometricPrecision; image-rendering:optimizeQuality; fill-rule:evenodd; clip-rule:evenodd" xmlns:xlink="http://www.w3.org/1999/xlink">
<g><path style="opacity:1" fill="#414359" d="M 48.5,-0.5 C 65.8333,-0.5 83.1667,-0.5 100.5,-0.5C 131.488,3.99599 147.655,21.996 149,53.5C 149.804,71.1901 149.471,88.8567 148,106.5C 142.873,129.627 128.706,143.794 105.5,149C 83.8333,151 62.1667,151 40.5,149C 15.3841,142.393 1.71742,126.226 -0.5,100.5C -0.5,83.1667 -0.5,65.8333 -0.5,48.5C 3.5,19.8333 19.8333,3.5 48.5,-0.5 Z M 50.5,26.5 C 67.8365,26.3334 85.1699,26.5001 102.5,27C 108.999,29.0031 114.165,32.8365 118,38.5C 120.424,43.1944 121.757,48.1944 122,53.5C 122.667,67.1667 122.667,80.8333 122,94.5C 121.767,110.39 113.933,119.89 98.5,123C 82.5,123.667 66.5,123.667 50.5,123C 36.9334,120.432 29.1,112.265 27,98.5C 26.0704,80.7888 26.4037,63.1221 28,45.5C 31.7175,34.5741 39.2175,28.2408 50.5,26.5 Z"/></g>
<g><path style="opacity:1" fill="#414359" d="M 222.5,-0.5 C 238.833,-0.5 255.167,-0.5 271.5,-0.5C 299.274,3.2749 315.608,18.9416 320.5,46.5C 320.5,65.1667 320.5,83.8333 320.5,102.5C 316.495,127.346 302.161,142.846 277.5,149C 255.833,151 234.167,151 212.5,149C 189.879,143.635 176.379,129.468 172,106.5C 171.601,96.1615 171.101,85.8282 170.5,75.5C 171.101,65.1718 171.601,54.8385 172,44.5C 178.328,17.6703 195.161,2.67028 222.5,-0.5 Z M 221.5,26.5 C 239.17,26.3334 256.836,26.5001 274.5,27C 284.572,30.743 290.739,37.9097 293,48.5C 293.667,65.5 293.667,82.5 293,99.5C 291.151,113.349 283.318,121.182 269.5,123C 253.833,123.667 238.167,123.667 222.5,123C 211.852,121.367 204.352,115.533 200,105.5C 197.074,85.8967 196.741,66.23 199,46.5C 202.668,35.3228 210.168,28.6561 221.5,26.5 Z"/></g>
<g><path style="opacity:1" fill="#414359" d="M 63.5,49.5 C 92.138,44.3052 103.971,55.9719 99,84.5C 97.1667,92.3333 92.3333,97.1667 84.5,99C 55.8164,103.982 44.3164,92.1489 50,63.5C 52.0166,56.3185 56.5166,51.6518 63.5,49.5 Z"/></g>
<g><path style="opacity:1" fill="#414359" d="M 234.5,49.5 C 264.16,44.6604 275.993,56.9937 270,86.5C 267.623,93.5455 262.79,97.7122 255.5,99C 228.51,103.675 217.01,92.5088 221,65.5C 222.161,57.1844 226.661,51.8511 234.5,49.5 Z"/></g>
<g><path style="opacity:1" fill="#414359" d="M 102.5,320.5 C 83.8333,320.5 65.1667,320.5 46.5,320.5C 19.4042,315.737 3.73749,299.737 -0.5,272.5C -0.5,254.833 -0.5,237.167 -0.5,219.5C 3.10047,193.495 17.7671,177.662 43.5,172C 64.1667,170 84.8333,170 105.5,172C 128.553,176.719 142.719,190.553 148,213.5C 149.984,234.835 149.984,256.168 148,277.5C 142.659,302.343 127.493,316.677 102.5,320.5 Z M 60.5,197.5 C 75.5254,197.272 90.5254,197.772 105.5,199C 116.199,204.558 121.699,213.392 122,225.5C 122.869,241.866 122.536,258.199 121,274.5C 119.067,283.428 113.901,289.595 105.5,293C 85.8967,295.926 66.23,296.259 46.5,294C 35.6095,289.779 29.1095,281.946 27,270.5C 26.3333,254.167 26.3333,237.833 27,221.5C 31.4016,204.05 42.5683,196.05 60.5,197.5 Z"/></g>
<g><path style="opacity:1" fill="#414359" d="M 185.5,172.5 C 214.104,166.61 226.27,177.943 222,206.5C 220.167,215 215,220.167 206.5,222C 177.786,226.279 166.619,214.112 173,185.5C 175.353,179.315 179.52,174.982 185.5,172.5 Z"/></g>
<g><path style="opacity:1" fill="#414359" d="M 320.5,185.5 C 320.5,193.167 320.5,200.833 320.5,208.5C 318.124,216.368 312.79,220.868 304.5,222C 298.5,222.667 292.5,222.667 286.5,222C 274.315,218.492 268.981,210.325 270.5,197.5C 269.69,189.215 272.024,182.048 277.5,176C 279.717,174.725 282.051,173.725 284.5,173C 293.244,172.09 301.911,172.424 310.5,174C 315.161,176.818 318.495,180.651 320.5,185.5 Z"/></g>
<g><path style="opacity:1" fill="#414359" d="M 62.5,222.5 C 91.1032,216.61 103.27,227.943 99,256.5C 97.0455,265.455 91.5455,270.621 82.5,272C 54.5984,275.457 43.7651,263.29 50,235.5C 52.3531,229.315 56.5198,224.982 62.5,222.5 Z"/></g>
<g><path style="opacity:1" fill="#414359" d="M 233.5,222.5 C 241.507,222.334 249.507,222.5 257.5,223C 264.333,224.5 268.5,228.667 270,235.5C 276.572,263.583 265.738,275.75 237.5,272C 228,270.5 222.5,265 221,255.5C 220.333,249.833 220.333,244.167 221,238.5C 222.073,230.661 226.239,225.328 233.5,222.5 Z"/></g>
<g><path style="opacity:1" fill="#414359" d="M 208.5,320.5 C 200.833,320.5 193.167,320.5 185.5,320.5C 180.651,318.495 176.818,315.161 174,310.5C 166.637,275.259 180.137,263.092 214.5,274C 218.666,277.165 221.166,281.332 222,286.5C 223.066,294.994 222.399,303.328 220,311.5C 217.317,316.078 213.483,319.078 208.5,320.5 Z"/></g>
<g><path style="opacity:1" fill="#414359" d="M 320.5,284.5 C 320.5,292.167 320.5,299.833 320.5,307.5C 317.833,313.5 313.5,317.833 307.5,320.5C 299.833,320.5 292.167,320.5 284.5,320.5C 278.252,318.754 274.085,314.754 272,308.5C 264.808,280.038 275.641,267.538 304.5,271C 312.79,272.132 318.124,276.632 320.5,284.5 Z"/></g>
</svg>
