<?xml version="1.0" encoding="UTF-8"?>
<!DOCTYPE svg PUBLIC "-//W3C//DTD SVG 1.1//EN" "http://www.w3.org/Graphics/SVG/1.1/DTD/svg11.dtd">
<svg xmlns="http://www.w3.org/2000/svg" version="1.1" width="512px" height="478px" style="shape-rendering:geometricPrecision; text-rendering:geometricPrecision; image-rendering:optimizeQuality; fill-rule:evenodd; clip-rule:evenodd" xmlns:xlink="http://www.w3.org/1999/xlink">
<g><path style="opacity:0.997" fill="#414459" d="M 511.5,451.5 C 511.5,459.833 511.5,468.167 511.5,476.5C 510.833,476.5 510.5,476.833 510.5,477.5C 340.5,477.5 170.5,477.5 0.5,477.5C 0.5,476.833 0.166667,476.5 -0.5,476.5C -0.5,468.167 -0.5,459.833 -0.5,451.5C 1.87074,448.628 4.87074,446.794 8.5,446C 15.1583,445.5 21.825,445.334 28.5,445.5C 28.3333,406.832 28.5,368.165 29,329.5C 29.4244,323.558 31.4244,318.225 35,313.5C 40.5714,307.258 46.738,301.758 53.5,297C 55.5,296.333 57.5,295.667 59.5,295C 74.1667,294.833 88.8333,294.667 103.5,294.5C 119.551,294.364 135.551,294.864 151.5,296C 163.807,302.306 172.641,311.806 178,324.5C 178.167,364.837 178.667,405.171 179.5,445.5C 180.011,360.125 180.844,274.792 182,189.5C 188.167,178 197,169.167 208.5,163C 224.116,161.864 239.782,161.364 255.5,161.5C 271.218,161.364 286.884,161.864 302.5,163C 314,169.167 322.833,178 329,189.5C 330.156,274.792 330.989,360.125 331.5,445.5C 332.333,316.835 332.833,188.168 333,59.5C 333.899,55.462 335.566,51.7954 338,48.5C 343.951,41.5423 350.785,35.7089 358.5,31C 361.424,30.0124 364.424,29.3457 367.5,29C 394.167,28.3333 420.833,28.3333 447.5,29C 452.642,29.4484 457.308,31.1151 461.5,34C 468.407,40.2362 474.573,47.0695 480,54.5C 480.794,57.4715 481.461,60.4715 482,63.5C 482.5,190.833 482.667,318.166 482.5,445.5C 490.571,445.137 498.571,445.637 506.5,447C 508.037,448.707 509.704,450.207 511.5,451.5 Z M 368.5,65.5 C 394.167,65.5 419.833,65.5 445.5,65.5C 445.5,192.167 445.5,318.833 445.5,445.5C 419.833,445.5 394.167,445.5 368.5,445.5C 368.5,318.833 368.5,192.167 368.5,65.5 Z M 216.5,197.5 C 242.5,197.5 268.5,197.5 294.5,197.5C 294.5,280.167 294.5,362.833 294.5,445.5C 268.5,445.5 242.5,445.5 216.5,445.5C 216.5,362.833 216.5,280.167 216.5,197.5 Z M 65.5,330.5 C 91.1667,330.5 116.833,330.5 142.5,330.5C 142.5,368.833 142.5,407.167 142.5,445.5C 116.833,445.5 91.1667,445.5 65.5,445.5C 65.5,407.167 65.5,368.833 65.5,330.5 Z"/></g>
</svg>
