<?xml version="1.0" encoding="UTF-8"?>
<!DOCTYPE svg PUBLIC "-//W3C//DTD SVG 1.1//EN" "http://www.w3.org/Graphics/SVG/1.1/DTD/svg11.dtd">
<svg xmlns="http://www.w3.org/2000/svg" version="1.1" width="468px" height="468px" style="shape-rendering:geometricPrecision; text-rendering:geometricPrecision; image-rendering:optimizeQuality; fill-rule:evenodd; clip-rule:evenodd" xmlns:xlink="http://www.w3.org/1999/xlink">
<g><path style="opacity:0.996" fill="#42435a" d="M 142.5,8.5 C 146.131,8.16039 149.464,8.99372 152.5,11C 156.036,14.2012 159.203,17.7012 162,21.5C 161.434,33.7423 159.934,45.9089 157.5,58C 157.833,59.1667 158.167,60.3333 158.5,61.5C 228.635,27.6444 296.635,31.4777 362.5,73C 377.528,84.0206 391.361,96.5206 404,110.5C 405.422,113.03 405.755,115.697 405,118.5C 401.535,122.967 397.702,127.133 393.5,131C 389.634,133.12 385.967,132.786 382.5,130C 334.537,81.3502 276.87,63.6835 209.5,77C 199.075,79.4189 189.075,82.9189 179.5,87.5C 189.447,89.5643 199.447,91.3977 209.5,93C 215.64,97.1334 220.306,102.467 223.5,109C 220.333,117.5 214.5,123.333 206,126.5C 181.183,122.28 156.349,118.114 131.5,114C 126.699,110.201 122.199,106.034 118,101.5C 117.833,100 117.667,98.5 117.5,97C 121.089,70.9671 125.589,45.1337 131,19.5C 134.729,15.6019 138.562,11.9352 142.5,8.5 Z"/></g>
<g><path style="opacity:0.997" fill="#42435a" d="M 281.5,467.5 C 279.5,467.5 277.5,467.5 275.5,467.5C 260.57,466.337 245.57,464.504 230.5,462C 192.473,454.461 154.473,446.795 116.5,439C 114.5,438 112.5,437 110.5,436C 104.333,429.833 98.1667,423.667 92,417.5C 86.7757,409.271 85.7757,400.605 89,391.5C 98.3599,375.138 110.86,361.638 126.5,351C 133.679,346.94 141.345,344.274 149.5,343C 160.5,342.667 171.5,342.333 182.5,342C 125,284.5 67.5,227 10,169.5C 4.90133,163.963 1.40133,157.629 -0.5,150.5C -0.5,145.5 -0.5,140.5 -0.5,135.5C 1.42148,130.324 3.92148,125.324 7,120.5C 13.5307,113.635 20.364,107.135 27.5,101C 42.2459,93.1727 56.5792,93.8394 70.5,103C 97.3333,129.833 124.167,156.667 151,183.5C 156.5,178 162,172.5 167.5,167C 177.558,160.321 188.558,157.988 200.5,160C 206.833,153.667 213.167,147.333 219.5,141C 229.223,134.352 239.723,132.519 251,135.5C 258.628,125.535 267.794,117.368 278.5,111C 292.596,105.738 305.596,107.738 317.5,117C 350.667,150.167 383.833,183.333 417,216.5C 447.959,254.584 455.293,296.918 439,343.5C 431.776,360.383 421.776,375.383 409,388.5C 391.528,404.971 374.362,421.804 357.5,439C 335.107,456.518 309.773,466.018 281.5,467.5 Z M 44.5,136.5 C 50.0402,136.3 55.0402,137.8 59.5,141C 98.8333,180.333 138.167,219.667 177.5,259C 181.167,261 184.833,261 188.5,259C 193,254.5 197.5,250 202,245.5C 204,241.833 204,238.167 202,234.5C 194.877,228.383 188.877,221.383 184,213.5C 183.333,210.167 183.333,206.833 184,203.5C 189.165,200.991 194.332,201.158 199.5,204C 207.803,211.302 215.803,218.969 223.5,227C 226.03,228.422 228.697,228.755 231.5,228C 238.95,222.555 244.95,215.888 249.5,208C 247.277,201.758 243.443,196.591 238,192.5C 230.783,175.386 235.616,170.886 252.5,179C 259.833,186.333 267.167,193.667 274.5,201C 278.167,203 281.833,203 285.5,201C 290.333,196.167 295.167,191.333 300,186.5C 300.817,183.036 300.483,179.702 299,176.5C 292.015,171.516 287.848,164.85 286.5,156.5C 286.84,154.488 287.173,152.488 287.5,150.5C 293.935,149.105 299.935,150.272 305.5,154C 333.725,181.557 361.225,209.724 388,238.5C 407.061,269.028 410.727,301.361 399,335.5C 393.064,350.089 384.731,363.089 374,374.5C 361.573,388.432 347.74,400.599 332.5,411C 312.621,422.303 291.288,426.97 268.5,425C 257.431,424.241 246.431,422.908 235.5,421C 200.243,414.082 165.076,406.915 130,399.5C 129.761,396.303 130.928,393.636 133.5,391.5C 138.095,388.466 143.095,386.299 148.5,385C 167.8,383.759 187.134,383.092 206.5,383C 214.886,377.621 222.386,371.121 229,363.5C 233.667,355.5 233.667,347.5 229,339.5C 168,278.5 107,217.5 46,156.5C 41.3042,150.915 39.8042,144.581 41.5,137.5C 42.791,137.737 43.791,137.404 44.5,136.5 Z"/></g>
</svg>
