<?xml version="1.0" encoding="UTF-8"?>
<!DOCTYPE svg PUBLIC "-//W3C//DTD SVG 1.1//EN" "http://www.w3.org/Graphics/SVG/1.1/DTD/svg11.dtd">
<svg xmlns="http://www.w3.org/2000/svg" version="1.1" width="512px" height="512px" style="shape-rendering:geometricPrecision; text-rendering:geometricPrecision; image-rendering:optimizeQuality; fill-rule:evenodd; clip-rule:evenodd" xmlns:xlink="http://www.w3.org/1999/xlink">
<g><path style="opacity:1" fill="#414359" d="M 174.5,-0.5 C 228.5,-0.5 282.5,-0.5 336.5,-0.5C 336.5,12.5 336.5,25.5 336.5,38.5C 357.503,38.3334 378.503,38.5 399.5,39C 428.873,42.7058 447.373,58.8725 455,87.5C 456.652,210.144 456.985,332.811 456,455.5C 452.104,484.89 435.937,503.557 407.5,511.5C 306.167,511.5 204.833,511.5 103.5,511.5C 75.0627,503.557 58.896,484.89 55,455.5C 54.0149,332.811 54.3482,210.144 56,87.5C 63.6266,58.8725 82.1266,42.7058 111.5,39C 132.497,38.5 153.497,38.3334 174.5,38.5C 174.5,25.5 174.5,12.5 174.5,-0.5 Z M 216.5,40.5 C 242.5,40.5 268.5,40.5 294.5,40.5C 294.5,53.1667 294.5,65.8333 294.5,78.5C 268.5,78.5 242.5,78.5 216.5,78.5C 216.5,65.8333 216.5,53.1667 216.5,40.5 Z M 109.5,80.5 C 131.167,80.5 152.833,80.5 174.5,80.5C 174.177,93.7461 174.511,106.913 175.5,120C 228.833,120.667 282.167,120.667 335.5,120C 336.489,106.913 336.823,93.7461 336.5,80.5C 358.169,80.3334 379.836,80.5 401.5,81C 407.667,83.1667 411.833,87.3333 414,93.5C 414.667,214.833 414.667,336.167 414,457.5C 411.833,463.667 407.667,467.833 401.5,470C 304.167,470.667 206.833,470.667 109.5,470C 103.333,467.833 99.1667,463.667 97,457.5C 96.3333,336.167 96.3333,214.833 97,93.5C 99.3531,87.3154 103.52,82.982 109.5,80.5 Z M 189.5,356.5 C 207.648,355.148 215.815,363.481 214,381.5C 207.178,395.042 197.011,398.209 183.5,391C 175.602,382.745 174.435,373.579 180,363.5C 182.79,360.535 185.957,358.202 189.5,356.5 Z"/></g>
<g><path style="opacity:1" fill="#414359" d="M 260.5,154.5 C 270.913,163.409 280.913,172.909 290.5,183C 259.167,214.333 227.833,245.667 196.5,277C 195.833,277.667 195.167,277.667 194.5,277C 176.5,259 158.5,241 140.5,223C 150.014,213.319 159.681,203.819 169.5,194.5C 177.986,202.486 186.319,210.652 194.5,219C 195.167,219.667 195.833,219.667 196.5,219C 218.035,197.632 239.368,176.132 260.5,154.5 Z"/></g>
<g><path style="opacity:1" fill="#414459" d="M 295.5,234.5 C 322.169,234.333 348.835,234.5 375.5,235C 376.656,248.425 376.822,261.925 376,275.5C 349.239,276.661 322.405,276.828 295.5,276C 294.175,262.167 294.175,248.333 295.5,234.5 Z"/></g>
<g><path style="opacity:1" fill="#414359" d="M 191.5,314.5 C 230.277,316.611 251.944,336.944 256.5,375.5C 252.5,412.167 232.167,432.5 195.5,436.5C 158.833,432.5 138.5,412.167 134.5,375.5C 138.094,340.578 157.094,320.244 191.5,314.5 Z M 189.5,356.5 C 185.957,358.202 182.79,360.535 180,363.5C 174.435,373.579 175.602,382.745 183.5,391C 197.011,398.209 207.178,395.042 214,381.5C 215.815,363.481 207.648,355.148 189.5,356.5 Z"/></g>
<g><path style="opacity:1" fill="#414459" d="M 295.5,354.5 C 322.169,354.333 348.835,354.5 375.5,355C 376.656,368.425 376.822,381.925 376,395.5C 349.239,396.661 322.405,396.828 295.5,396C 294.175,382.167 294.175,368.333 295.5,354.5 Z"/></g>
</svg>
